<?xml version="1.0" encoding="UTF-8"?>
<!DOCTYPE svg PUBLIC "-//W3C//DTD SVG 1.1//EN" "http://www.w3.org/Graphics/SVG/1.1/DTD/svg11.dtd">
<!-- Creator: CorelDRAW -->
<svg xmlns="http://www.w3.org/2000/svg" xml:space="preserve" width="0.116661in" height="0.116661in" version="1.1" style="shape-rendering:geometricPrecision; text-rendering:geometricPrecision; image-rendering:optimizeQuality; fill-rule:evenodd; clip-rule:evenodd"
viewBox="0 0 116.66 116.66"
 xmlns:xlink="http://www.w3.org/1999/xlink"
 xmlns:xodm="http://www.corel.com/coreldraw/odm/2003">
 <defs>
  <style type="text/css">
   <![CDATA[
    .fil0 {fill:none}
    .fil2 {fill:#2C2C2C}
    .fil1 {fill:#C7F628}
   ]]>
  </style>
 </defs>
 <g id="Layer_x0020_1">
  <metadata id="CorelCorpID_0Corel-Layer"/>
  <rect x="0" y="0" width="116.66" height="116.66" rx="20" ry="20" fill="#fff"/>
  <rect class="fil0" x="-1.67" y="1.66" width="116.67" height="116.67"/>
  <g id="_2410217498192" transform="translate(58.33 58.33) scale(1.25) translate(-58.33 -58.33)">
   <g>
    <path class="fil1" d="M95 78.21c-2.04,-4.43 -14.71,-22.22 -14.78,-23.6 -0.07,-1.47 9.36,-13.46 10.47,-16.79l-13.05 -0.02c-0.98,2.59 -6.24,9.75 -8.24,12.75 -2.35,3.52 -2.57,3.78 -0.21,7.45 1.57,2.44 2.76,4.37 4.27,6.69 2.74,4.21 5.44,8.47 8.26,13.08 1.34,2.19 2.76,4.72 6.13,4.39 2.34,-0.22 5.69,-2.6 7.16,-3.96z"/>
    <path class="fil2" d="M46.94 52.86c0.31,1.34 16.27,26.75 17.99,28.17 1.56,1.28 3.93,1.59 5.98,0.36 1.36,-0.82 3.75,-2.17 4.7,-3.18 -0.7,-2.16 -4.35,-7.18 -5.79,-9.48 -1.81,-2.9 -4.04,-6.4 -5.95,-9.36 -1.28,-1.97 -4.82,-8 -6.16,-9.11 -3.86,-3.23 -7.93,1.1 -10.77,2.6z"/>
    <path class="fil2" d="M27.62 52.88c1.35,2.9 16.58,26.85 18.11,28.13 3.29,2.75 8.12,-0.35 10.76,-2.8l-11.84 -18.84c-1.42,-2.18 -4.63,-7.91 -6.17,-9.13 -4.05,-3.22 -8.22,1.2 -10.86,2.64z"/>
    <path class="fil2" d="M18.33 68.59l6.81 11.15c3.84,5.2 10.37,0.25 11.87,-1.53 -0.67,-1.74 -5.39,-9.24 -6.76,-11.01 -3.48,-4.47 -8.77,-1.35 -11.92,1.39z"/>
   </g>
  </g>
 </g>
</svg>
